# xmcd CD database file
#
# Track frame offsets:
#	150
#	16023
#	29646
#	41994
#	57492
#	76440
#	88420
#	104590
#	116785
#	131411
#	141907
#	159089
#	171286
#	191040
#	206979
#	222855
#	241775
#	258846
#	275268
#	288032
#	301866
#	317491
#	333363
#	346163
#
# Disc length: 4785 seconds
#
# Revision: 0
# Processed by: cddbd v1.5.2PL0 Copyright (c) Steve Scherf et al.
# Submitted via: CDex 1.51
#
DISCID=5f12af18
DTITLE=Compilation - A Gozar la Salsa
DYEAR=2010
DGENRE=Salsa
TTITLE0=01 Sabrosura de Billy - Billy y su combo
TTITLE1=02 Una Mañana - Los Afroins
TTITLE2=03 El Colectivo de las 7 - Lucho Macedo
TTITLE3=04 Baila mi Guaguanco - Pluma y sus 8 Octavos
TTITLE4=05 Estricto guaguanco - Alfredito Linares
TTITLE5=06 Arañanga /Julian y su Combo
TTITLE6=07 La Banda - Tito Chicoma Johnny Mara
TTITLE7=08 Busca el Guardia - Rex Tex y Su Orquesta
TTITLE8=09 Concierto para una sola voz - Los Afroins
TTITLE9=10 Sacude Zapato - Pluma y Sus 8 Octavos
TTITLE10=11 Se soltaron los demonios - Lucho Macedo
TTITLE11=12 Esta de bala - Los Afroins
TTITLE12=13 Estamos en Salsa - Julian y Su Combo
TTITLE13=14 Ritmo Caliente - Alfredito Linares
TTITLE14=15 Quemando monte - Pluma y Sus 8 Octavos
TTITLE15=16 Salsa Peruana - Tito Chicoma Johnny Mara
TTITLE16=17 Puertorico Power - Los Afroins
TTITLE17=18 No boto Corriente - Billy y Su Combo
TTITLE18=19 Ven Rumbero - Julian y su Combo
TTITLE19=20 Soul and Feeling (alma y sentimiento) - Alfredito Linares
TTITLE20=21 Cuidate - Los Afroins
TTITLE21=22 Ayaca de maiz - Pluma y sus 8 octavos
TTITLE22=23 A bailar oriza - Tito Chicoma Johnny Mara
TTITLE23=24 Ojos negros - Rex Tex y Su Orquesta
EXTD=YEAR: 2010
EXTT0=
EXTT1=
EXTT2=
EXTT3=
EXTT4=
EXTT5=
EXTT6=
EXTT7=
EXTT8=
EXTT9=
EXTT10=
EXTT11=
EXTT12=
EXTT13=
EXTT14=
EXTT15=
EXTT16=
EXTT17=
EXTT18=
EXTT19=
EXTT20=
EXTT21=
EXTT22=
EXTT23=
PLAYORDER=
